<?xml version="1.0" encoding="utf-8"?>
<!-- Generator: Adobe Illustrator 22.0.1, SVG Export Plug-In . SVG Version: 6.00 Build 0)  -->
<svg version="1.1" id="Capa_1" xmlns="http://www.w3.org/2000/svg" xmlns:xlink="http://www.w3.org/1999/xlink" x="0px" y="0px"
	 viewBox="0 0 512 512" style="enable-background:new 0 0 512 512;" xml:space="preserve">
<style type="text/css">
	.st0{fill:#129B49;stroke:#000000;stroke-width:16;stroke-miterlimit:10;}
	.st1{fill:#50BB82;}
	.st2{fill:#129B49;}
	.st3{fill:#FDDB00;}
	.st4{fill:#F7971D;}
</style>
<g id="Coding_Focus">
	<circle class="st0" cx="256" cy="256" r="165"/>
	<path class="st1" d="M256,412.5c-86.3,0-156.5-70.2-156.5-156.5S169.7,99.5,256,99.5S412.5,169.7,412.5,256S342.3,412.5,256,412.5z
		"/>
	<path class="st2" d="M412.5,256c0-86.3-70.2-156.5-156.5-156.5v313.1C342.3,412.5,412.5,342.3,412.5,256z"/>
	<g>
		<path d="M196,295c-2.4,0-4.7-0.9-6.4-2.6l-30-30c-3.5-3.5-3.5-9.2,0-12.7l30-30c1.7-1.7,4-2.6,6.4-2.6c2.4,0,4.7,0.9,6.4,2.6
			c1.7,1.7,2.6,4,2.6,6.4s-0.9,4.7-2.6,6.4L178.7,256l23.6,23.6c3.5,3.5,3.5,9.2,0,12.7C200.7,294.1,198.4,295,196,295z"/>
		<path d="M316,295c-2.4,0-4.7-0.9-6.4-2.6c-3.5-3.5-3.5-9.2,0-12.7l23.6-23.6l-23.6-23.6c-3.5-3.5-3.5-9.2,0-12.7
			c1.7-1.7,4-2.6,6.4-2.6s4.7,0.9,6.4,2.6l30,30c3.5,3.5,3.5,9.2,0,12.7l-30,30C320.7,294.1,318.4,295,316,295z"/>
		<path d="M241.4,325c-3.1,0-6.2-1.4-7.9-3.6c-1.6-2-2-4.6-1.2-7.6l30-120c1-4,4.6-6.8,8.7-6.8c0.1,0,0.3,0,0.4,0
			c0.6,0,1.2,0.1,1.8,0.3c0.6,0.1,1.2,0.4,1.7,0.6c3.8,1.8,5.9,6.2,4.8,10.3l-30,120C248.2,324.1,243.9,325,241.4,325z"/>
	</g>
	<path class="st3" d="M512,256c0-8.3-6.7-15-15-15h-16.5C473.1,128.9,383.1,38.9,271,31.5V15c0-8.3-6.7-15-15-15s-15,6.7-15,15v16.5
		C128.9,38.9,38.9,128.9,31.5,241H15c-8.3,0-15,6.7-15,15s6.7,15,15,15h16.5c7.4,112.1,97.4,202.1,209.5,209.5V497
		c0,8.3,6.7,15,15,15s15-6.7,15-15v-16.5c112.1-7.4,202.1-97.4,209.5-209.5H497C505.3,271,512,264.3,512,256z M271,450.4V406
		c0-8.3-6.7-15-15-15s-15,6.7-15,15v44.4C145.4,443.1,68.9,366.6,61.6,271H106c8.3,0,15-6.7,15-15s-6.7-15-15-15H61.6
		C68.9,145.4,145.4,68.9,241,61.6V106c0,8.3,6.7,15,15,15s15-6.7,15-15V61.6c95.6,7.3,172.1,83.8,179.4,179.4H406
		c-8.3,0-15,6.7-15,15s6.7,15,15,15h44.4C443.1,366.6,366.6,443.1,271,450.4z"/>
	<path class="st4" d="M256,121c8.3,0,15-6.7,15-15V61.6c95.6,7.3,172.1,83.8,179.4,179.4H406c-8.3,0-15,6.7-15,15s6.7,15,15,15h44.4
		c-7.3,95.6-83.8,172.1-179.4,179.4V406c0-8.3-6.7-15-15-15v121c8.3,0,15-6.7,15-15v-16.5c112.1-7.4,202.1-97.4,209.5-209.5H497
		c8.3,0,15-6.7,15-15s-6.7-15-15-15h-16.5C473.1,128.9,383.1,38.9,271,31.5V15c0-8.3-6.7-15-15-15V121z"/>
</g>
</svg>
